<?xml version="1.0" encoding="utf-8"?>
<!-- Generator: Adobe Illustrator 27.5.0, SVG Export Plug-In . SVG Version: 6.00 Build 0)  -->
<svg version="1.1" xmlns="http://www.w3.org/2000/svg" xmlns:xlink="http://www.w3.org/1999/xlink" x="0px" y="0px"
	 viewBox="0 0 750 500" style="enable-background:new 0 0 750 500;" xml:space="preserve">
<g id="Background_Complete">
	<g>
		<g>
			<rect x="61.142" y="317.968" style="fill:#EBEBEB;" width="131.326" height="101.29"/>
			<g>
				<path style="fill:#E0E0E0;" d="M159.565,418.543c-0.144,0-0.26-22.578-0.26-50.422c0-27.854,0.117-50.427,0.26-50.427
					s0.26,22.573,0.26,50.427C159.826,395.965,159.709,418.543,159.565,418.543z"/>
			</g>
			<rect x="171.265" y="396.203" style="fill:#FAFAFA;" width="10.068" height="11.381"/>
			<rect x="101.206" y="318.229" style="fill:#E0E0E0;" width="14.917" height="21.613"/>
			<rect x="101.206" y="397.343" style="fill:#E0E0E0;" width="14.917" height="21.613"/>
		</g>
	</g>
	<g>
		<g>
			<rect x="81.68" y="216.91" style="fill:#EBEBEB;" width="131.326" height="101.29"/>
			<g>
				<path style="fill:#E0E0E0;" d="M180.102,317.485c-0.144,0-0.26-22.577-0.26-50.422c0-27.854,0.117-50.427,0.26-50.427
					s0.26,22.573,0.26,50.427C180.363,294.907,180.246,317.485,180.102,317.485z"/>
			</g>
			<rect x="191.802" y="295.145" style="fill:#FAFAFA;" width="10.068" height="11.381"/>
			<rect x="121.743" y="217.171" style="fill:#E0E0E0;" width="14.917" height="21.613"/>
			<rect x="121.743" y="296.286" style="fill:#E0E0E0;" width="14.917" height="21.613"/>
		</g>
	</g>
	<g>
		<g>
			<rect x="98.385" y="135.727" style="fill:#F5F5F5;" width="105.596" height="81.445"/>
			<g>
				<path style="fill:#E0E0E0;" d="M177.524,216.596c-0.116,0-0.209-18.154-0.209-40.543c0-22.397,0.094-40.547,0.209-40.547
					s0.209,18.15,0.209,40.547C177.733,198.442,177.64,216.596,177.524,216.596z"/>
			</g>
			<rect x="186.932" y="198.633" style="fill:#FAFAFA;" width="8.095" height="9.151"/>
			<rect x="130.599" y="135.936" style="fill:#E0E0E0;" width="11.994" height="17.378"/>
			<rect x="130.599" y="199.551" style="fill:#E0E0E0;" width="11.994" height="17.378"/>
		</g>
	</g>
	<g>
		<g>
			<rect x="576.17" y="192.274" style="fill:#F5F5F5;" width="99.19" height="76.504"/>
			<g>
				<path style="fill:#E0E0E0;" d="M650.508,268.237c-0.109,0-0.197-17.053-0.197-38.083c0-21.038,0.088-38.087,0.197-38.087
					c0.109,0,0.197,17.049,0.197,38.087C650.705,251.185,650.617,268.237,650.508,268.237z"/>
			</g>
			<rect x="659.345" y="251.364" style="fill:#FAFAFA;" width="7.604" height="8.596"/>
			<rect x="606.43" y="192.471" style="fill:#E0E0E0;" width="11.267" height="16.324"/>
			<rect x="606.43" y="252.226" style="fill:#E0E0E0;" width="11.267" height="16.324"/>
		</g>
	</g>
	<g>
		<g>
			<rect x="594.281" y="356.727" style="fill:#EBEBEB;" width="114.324" height="88.177"/>
			<g>
				<path style="fill:#E0E0E0;" d="M679.962,444.281c-0.125,0-0.227-19.655-0.227-43.894c0-24.248,0.102-43.898,0.227-43.898
					c0.125,0,0.227,19.65,0.227,43.898C680.189,424.626,680.087,444.281,679.962,444.281z"/>
			</g>
			<rect x="690.147" y="424.833" style="fill:#FAFAFA;" width="8.765" height="9.908"/>
			<rect x="629.158" y="356.954" style="fill:#E0E0E0;" width="12.986" height="18.815"/>
			<rect x="629.158" y="425.826" style="fill:#E0E0E0;" width="12.986" height="18.815"/>
		</g>
	</g>
	<g>
		<g>
			<rect x="578.489" y="268.778" style="fill:#EBEBEB;" width="114.324" height="88.177"/>
			<g>
				<path style="fill:#E0E0E0;" d="M664.17,356.332c-0.125,0-0.227-19.655-0.227-43.894c0-24.248,0.102-43.898,0.227-43.898
					c0.125,0,0.227,19.65,0.227,43.898C664.397,336.677,664.295,356.332,664.17,356.332z"/>
			</g>
			<rect x="674.355" y="336.884" style="fill:#FAFAFA;" width="8.765" height="9.908"/>
			<rect x="613.366" y="269.005" style="fill:#E0E0E0;" width="12.986" height="18.815"/>
			<rect x="613.366" y="337.877" style="fill:#E0E0E0;" width="12.986" height="18.815"/>
		</g>
	</g>
	<g>
		<g>
			<rect x="382.785" y="193.504" style="fill:#F5F5F5;" width="99.19" height="76.504"/>
			<g>
				<path style="fill:#E0E0E0;" d="M457.123,269.467c-0.109,0-0.197-17.053-0.197-38.083c0-21.038,0.088-38.087,0.197-38.087
					s0.197,17.049,0.197,38.087C457.32,252.415,457.232,269.467,457.123,269.467z"/>
			</g>
			<rect x="465.96" y="252.594" style="fill:#FAFAFA;" width="7.604" height="8.596"/>
			<rect x="413.045" y="193.701" style="fill:#E0E0E0;" width="11.267" height="16.324"/>
			<rect x="413.045" y="253.456" style="fill:#E0E0E0;" width="11.267" height="16.324"/>
		</g>
	</g>
	<g>
		<g>
			<rect x="391.581" y="117.197" style="fill:#EBEBEB;" width="99.19" height="76.504"/>
			<g>
				<path style="fill:#E0E0E0;" d="M465.92,193.161c-0.109,0-0.197-17.053-0.197-38.083c0-21.038,0.088-38.087,0.197-38.087
					c0.109,0,0.197,17.049,0.197,38.087C466.116,176.108,466.028,193.161,465.92,193.161z"/>
			</g>
			<rect x="474.757" y="176.288" style="fill:#FAFAFA;" width="7.604" height="8.596"/>
			<rect x="421.841" y="117.394" style="fill:#E0E0E0;" width="11.267" height="16.324"/>
			<rect x="421.841" y="177.149" style="fill:#E0E0E0;" width="11.267" height="16.324"/>
		</g>
	</g>
	<g>
		<g>
			<rect x="416.085" y="64.104" style="fill:#EBEBEB;" width="70.975" height="54.742"/>
			<g>
				<path style="fill:#E0E0E0;" d="M469.277,118.46c-0.078,0-0.141-12.202-0.141-27.251c0-15.054,0.063-27.253,0.141-27.253
					s0.141,12.199,0.141,27.253C469.418,106.257,469.355,118.46,469.277,118.46z"/>
			</g>
			<rect x="475.6" y="106.386" style="fill:#FAFAFA;" width="5.441" height="6.151"/>
			<rect x="437.737" y="64.245" style="fill:#E0E0E0;" width="8.062" height="11.681"/>
			<rect x="437.737" y="107.002" style="fill:#E0E0E0;" width="8.062" height="11.681"/>
		</g>
	</g>
	<g>
		<g>
			<rect x="400.897" y="357.957" style="fill:#EBEBEB;" width="114.324" height="88.177"/>
			<g>
				<path style="fill:#E0E0E0;" d="M486.577,445.511c-0.125,0-0.227-19.655-0.227-43.894c0-24.248,0.102-43.898,0.227-43.898
					c0.125,0,0.227,19.65,0.227,43.898C486.804,425.857,486.703,445.511,486.577,445.511z"/>
			</g>
			<rect x="496.763" y="426.063" style="fill:#FAFAFA;" width="8.765" height="9.908"/>
			<rect x="435.774" y="358.184" style="fill:#E0E0E0;" width="12.986" height="18.815"/>
			<rect x="435.774" y="427.056" style="fill:#E0E0E0;" width="12.986" height="18.815"/>
		</g>
	</g>
	<g>
		<g>
			<rect x="385.105" y="270.008" style="fill:#EBEBEB;" width="114.324" height="88.177"/>
			<g>
				<path style="fill:#E0E0E0;" d="M470.785,357.562c-0.125,0-0.227-19.655-0.227-43.894c0-24.248,0.102-43.898,0.227-43.898
					c0.125,0,0.227,19.65,0.227,43.898C471.012,337.907,470.91,357.562,470.785,357.562z"/>
			</g>
			<rect x="480.97" y="338.114" style="fill:#FAFAFA;" width="8.765" height="9.908"/>
			<rect x="419.981" y="270.235" style="fill:#E0E0E0;" width="12.986" height="18.815"/>
			<rect x="419.981" y="339.107" style="fill:#E0E0E0;" width="12.986" height="18.815"/>
		</g>
	</g>
	<path style="fill:#E0E0E0;" d="M250.797,428.671v-9.413H58.304c-1.422,0-2.575,1.153-2.575,2.574v4.264
		c0,1.422,1.153,2.574,2.575,2.574h5.359v4.285c0,1.399-1.134,2.534-2.534,2.534h-2.867c-1.399,0-2.534,1.134-2.534,2.534v4.346
		c0,1.399,1.134,2.534,2.534,2.534h192.534v-9.414h-44.871v-6.819H250.797z M109.802,428.671h11.535v6.819h-11.535V428.671z
		 M102.113,435.49H90.578v-6.819h11.535V435.49z M129.027,428.671h11.535v6.819h-11.535V428.671z M148.251,428.671h11.535v6.819
		h-11.535V428.671z M167.476,428.671h11.535v6.819h-11.535V428.671z M71.353,428.671h11.535v6.819H71.353V428.671z M198.235,435.49
		h-11.535v-6.819h11.535V435.49z"/>
</g>
<g id="Background_Simple" style="display:none;">
	<path style="display:inline;fill:#EBEBEB;" d="M666.068,133.6l-0.29-0.579c-25.6-51.141-78.16-83.757-135.337-82.51
		c-1.997,0.044-3.993,0.128-5.986,0.253c-47.832,3.005-92.54,29.619-114.622,68.231c-12.987,22.708-19.307,49.965-40.544,66.583
		c-27.638,21.628-69.247,17.062-105.609,11.338c-36.362-5.724-83.706-10.745-111.238,10.996
		c-17.243,13.616-40.591,38.693-44.783,67.562c-8.788,60.514,16.843,120.498,70.184,138.943
		c56.741,19.621,152.12,34.213,212.885,31.058c85.124-4.42,171.791-25.932,231.07-80.42
		C675.621,315.584,695.195,207.748,666.068,133.6z"/>
</g>
<g id="Fork-Lift">
	<g>
		<g>
			<g>
				<rect x="140.13" y="232.499" style="fill:#E8505B;" width="104.184" height="80.356"/>
				<rect x="140.13" y="232.499" style="opacity:0.3;" width="104.184" height="80.356"/>
				<g>
					<path style="fill:#263238;" d="M218.212,312.288c-0.093,0-0.168-17.911-0.168-40.001c0-22.097,0.075-40.005,0.168-40.005
						c0.093,0,0.168,17.908,0.168,40.005C218.38,294.377,218.305,312.288,218.212,312.288z"/>
				</g>
				<rect x="227.494" y="294.565" style="fill:#F5F5F5;" width="7.987" height="9.029"/>
				<rect x="171.914" y="232.707" style="fill:#263238;" width="11.834" height="17.146"/>
				<rect x="171.914" y="295.47" style="fill:#263238;" width="11.834" height="17.146"/>
			</g>
			<g>
				<path style="fill:#263238;" d="M243.406,232.499c0,0.006-0.09,0.012-0.267,0.017c-0.192,0.004-0.451,0.01-0.782,0.017
					c-0.706,0.007-1.716,0.018-3.009,0.032c-2.631,0.013-6.407,0.031-11.067,0.053c-9.359,0.012-22.261,0.029-36.51,0.048
					c-14.255-0.019-27.157-0.036-36.517-0.049c-4.659-0.022-8.435-0.041-11.066-0.053c-1.293-0.013-2.303-0.024-3.009-0.031
					c-0.331-0.007-0.59-0.013-0.782-0.017c-0.176-0.006-0.267-0.011-0.267-0.017s0.09-0.011,0.267-0.017
					c0.192-0.004,0.451-0.01,0.782-0.017c0.706-0.007,1.716-0.018,3.009-0.032c2.631-0.013,6.407-0.031,11.066-0.054
					c9.359-0.013,22.262-0.031,36.517-0.05c14.25,0.02,27.151,0.037,36.51,0.05c4.659,0.023,8.436,0.041,11.067,0.054
					c1.293,0.014,2.303,0.024,3.009,0.032c0.331,0.007,0.59,0.013,0.782,0.017C243.316,232.488,243.406,232.494,243.406,232.499z"/>
			</g>
		</g>
		<g>
			<g>
				<rect x="226.857" y="232.402" style="fill:#E8505B;" width="104.184" height="80.356"/>
				<g>
					<path style="fill:#263238;" d="M304.939,312.191c-0.093,0-0.168-17.911-0.168-40.001c0-22.097,0.075-40.005,0.168-40.005
						c0.093,0,0.168,17.908,0.168,40.005C305.107,294.279,305.031,312.191,304.939,312.191z"/>
				</g>
				<rect x="314.22" y="294.468" style="fill:#F5F5F5;" width="7.987" height="9.029"/>
				<rect x="258.641" y="232.609" style="opacity:0.5;fill:#FFFFFF;" width="11.834" height="17.146"/>
				<rect x="258.641" y="295.373" style="opacity:0.5;fill:#FFFFFF;" width="11.834" height="17.146"/>
			</g>
			<g>
				<path style="fill:#263238;" d="M330.133,232.402c0,0.006-0.09,0.012-0.267,0.017c-0.192,0.004-0.451,0.01-0.783,0.017
					c-0.706,0.007-1.716,0.018-3.009,0.032c-2.631,0.013-6.407,0.031-11.067,0.053c-9.36,0.012-22.261,0.03-36.511,0.048
					c-14.255-0.019-27.157-0.036-36.517-0.048c-4.659-0.023-8.435-0.041-11.066-0.053c-1.292-0.014-2.303-0.024-3.009-0.032
					c-0.331-0.007-0.59-0.013-0.782-0.017c-0.176-0.006-0.267-0.011-0.267-0.017s0.09-0.012,0.267-0.017
					c0.192-0.004,0.451-0.01,0.782-0.017c0.706-0.008,1.716-0.018,3.009-0.032c2.631-0.013,6.407-0.031,11.066-0.054
					c9.359-0.013,22.262-0.03,36.517-0.05c14.25,0.02,27.151,0.037,36.511,0.05c4.659,0.023,8.436,0.041,11.067,0.054
					c1.293,0.014,2.303,0.024,3.009,0.032c0.331,0.007,0.59,0.013,0.783,0.017C330.043,232.391,330.133,232.397,330.133,232.402z"/>
			</g>
		</g>
		<g>
			<g>
				<rect x="232.706" y="152.044" style="fill:#E8505B;" width="104.184" height="80.356"/>
				<g>
					<path style="fill:#263238;" d="M310.788,231.832c-0.093,0-0.168-17.911-0.168-40.001c0-22.097,0.075-40.005,0.168-40.005
						c0.093,0,0.168,17.908,0.168,40.005C310.956,213.921,310.88,231.832,310.788,231.832z"/>
				</g>
				<rect x="320.069" y="214.109" style="fill:#F5F5F5;" width="7.987" height="9.029"/>
				<rect x="264.49" y="152.251" style="fill:#263238;" width="11.834" height="17.146"/>
				<rect x="264.49" y="215.014" style="fill:#263238;" width="11.834" height="17.146"/>
			</g>
			<g>
				<path style="fill:#263238;" d="M335.982,152.044c0,0.006-0.09,0.012-0.267,0.017c-0.192,0.004-0.451,0.01-0.782,0.017
					c-0.706,0.007-1.716,0.018-3.009,0.032c-2.631,0.013-6.407,0.031-11.066,0.053c-9.36,0.012-22.261,0.03-36.511,0.049
					c-14.255-0.019-27.157-0.036-36.517-0.049c-4.659-0.023-8.435-0.041-11.066-0.053c-1.293-0.014-2.303-0.024-3.009-0.031
					c-0.331-0.007-0.59-0.013-0.782-0.017c-0.176-0.006-0.267-0.011-0.267-0.017s0.09-0.012,0.267-0.017
					c0.192-0.004,0.451-0.01,0.782-0.017c0.706-0.007,1.716-0.018,3.009-0.032c2.631-0.013,6.407-0.031,11.066-0.054
					c9.36-0.013,22.262-0.03,36.517-0.05c14.25,0.02,27.151,0.037,36.511,0.05c4.659,0.023,8.436,0.041,11.066,0.054
					c1.293,0.014,2.303,0.024,3.009,0.032c0.331,0.007,0.59,0.013,0.782,0.017C335.891,152.032,335.982,152.038,335.982,152.044z"/>
			</g>
		</g>
		<path style="fill:#455A64;" d="M325.75,402.33v-9.414H133.258c-1.422,0-2.575,1.153-2.575,2.574v4.264
			c0,1.422,1.153,2.575,2.575,2.575h5.359v4.285c0,1.399-1.134,2.534-2.534,2.534h-2.867c-1.399,0-2.534,1.134-2.534,2.534v4.346
			c0,1.399,1.134,2.534,2.534,2.534H325.75v-9.414h-44.871v-6.819H325.75z M184.756,402.33h11.535v6.819h-11.535V402.33z
			 M177.066,409.149h-11.535v-6.819h11.535V409.149z M203.98,402.33h11.535v6.819H203.98V402.33z M223.205,402.33h11.535v6.819
			h-11.535V402.33z M242.43,402.33h11.535v6.819H242.43V402.33z M146.307,402.33h11.535v6.819h-11.535V402.33z M273.189,409.149
			h-11.535v-6.819h11.535V409.149z"/>
		<g>
			<path style="fill:#263238;" d="M480.913,240.211c1.322-1.36,1.276-3.539-0.103-4.842l-32.471-30.687
				c-1.351-1.259-3.447-1.251-4.788,0.019l0,0c-1.403,1.329-1.461,3.545-0.13,4.946l12.952,13.627l-6.742,6.483l-3.516-2.758
				l-24.489,28.049l-13.09-12.592l-15.781,46.415l3.13,63.028h36.302l-2.534-74.864l24.317-34.713l0.185-8.255l6.967-7.161
				l15.086,13.473C477.568,241.591,479.643,241.518,480.913,240.211L480.913,240.211z"/>
			<g>
				<path style="fill:#263238;" d="M382.964,363.54c-0.144,0-0.26-57.481-0.26-128.371c0-70.915,0.117-128.384,0.26-128.384
					s0.26,57.469,0.26,128.384C383.224,306.059,383.108,363.54,382.964,363.54z"/>
			</g>
			<path style="fill:#455A64;" d="M464.251,347.354l22.079-61.311l-8.295-3.359v-11.891l60.37-0.936
				c2.94-0.06,5.382-2.288,5.711-5.211l8.864-78.815c0.411-3.651,3.499-6.412,7.173-6.412l0,0c4.103,0,7.381,3.415,7.212,7.515
				l-3.339,81.216l31.525,0.17l1.074,14.814l-93.227,3.646l-24.309,59.691L464.251,347.354z"/>
			<path style="fill:#263238;" d="M478.139,345.846l-78.476,0.625v5.225l32.504-0.418l51.786-0.393l125.533-17.729l-14.229-54.167
				h-84.971c-3.069,0-5.918,1.448-7.52,3.822L478.139,345.846z"/>
			<path style="fill:#455A64;" d="M440.526,119.361l-57.045,181.934l0.4,50.604h18.149v-13.112v-37.173l46.74-181.766l126.64-0.707
				l24.221,189.327h14.29l-29.467-188.003c-0.954-5.077-5.388-8.756-10.555-8.756H450.813
				C446.07,111.707,441.889,114.818,440.526,119.361z"/>
			<path style="fill:#E8505B;" d="M373.242,410.352v-48.603l10.639-9.851l99.97-1.286l18.039-14.641
				c3.354-2.723,7.481-4.319,11.795-4.563l19.253-1.087c0,0,8.642-5.955,16.976-11.855c10.591-7.498,23.242-11.533,36.219-11.533
				h55.426c4.191,0,7.589,3.397,7.589,7.589v95.83H373.242z"/>
			<rect x="372.261" y="394.69" style="fill:#263238;" width="276.886" height="15.978"/>
			<g>
				<g>
					<g>
						<g>
							<g>
								<g>
									<g>
										<path style="fill:#263238;" d="M386.591,410.174c-0.273,18.906,14.833,34.453,33.739,34.726
											c18.906,0.273,34.454-14.833,34.727-33.738c0.273-18.906-14.833-34.453-33.739-34.726
											C402.412,376.163,386.864,391.268,386.591,410.174z"/>
									</g>
								</g>
							</g>
						</g>
					</g>
				</g>
				<g>
					<g>
						<g>
							<g>
								<g>
									<g>
										<path style="fill:#263238;" d="M386.598,410.086c-0.001,0.03-0.006,0.059-0.006,0.088
											c-0.273,18.906,14.833,34.453,33.739,34.726c18.906,0.273,34.454-14.833,34.727-33.738c0-0.03-0.003-0.059-0.003-0.088
											L386.598,410.086z"/>
									</g>
								</g>
							</g>
						</g>
					</g>
				</g>
				<g>
					<g>
						<g>
							<g>
								<g>
									<g>
										<path style="fill:#FAFAFA;" d="M396.791,410.321c-0.191,13.273,10.413,24.189,23.686,24.38
											c13.274,0.191,24.189-10.414,24.381-23.687c0.191-13.273-10.413-24.189-23.687-24.38
											C407.897,386.443,396.982,397.048,396.791,410.321z"/>
									</g>
								</g>
							</g>
						</g>
					</g>
				</g>
				<g>
					<g>
						<g>
							<g>
								<g>
									<g>
										<path style="fill:#E0E0E0;" d="M421.171,386.634c-13.273-0.191-24.188,10.414-24.38,23.687l48.067,0.693
											C445.049,397.741,434.444,386.826,421.171,386.634z"/>
									</g>
								</g>
							</g>
						</g>
					</g>
				</g>
				<g>
					<g>
						<g>
							<g>
								<g>
									<g>
										<path style="fill:#263238;" d="M406.184,410.457c-0.117,8.086,6.343,14.735,14.428,14.851
											c8.086,0.117,14.735-6.343,14.852-14.429c0.117-8.086-6.344-14.735-14.429-14.851
											C412.95,395.911,406.301,402.371,406.184,410.457z"/>
									</g>
								</g>
							</g>
						</g>
					</g>
				</g>
			</g>
			<g>
				<g>
					<g>
						<g>
							<g>
								<g>
									<g>
										<path style="fill:#263238;" d="M554.132,410.174c-0.273,18.906,14.833,34.453,33.739,34.726
											c18.906,0.273,34.454-14.833,34.727-33.738c0.273-18.906-14.833-34.453-33.739-34.726
											C569.953,376.163,554.405,391.268,554.132,410.174z"/>
									</g>
								</g>
							</g>
						</g>
					</g>
				</g>
				<g>
					<g>
						<g>
							<g>
								<g>
									<g>
										<path style="fill:#263238;" d="M554.138,410.086c-0.001,0.03-0.006,0.059-0.006,0.088
											c-0.273,18.906,14.833,34.453,33.739,34.726c18.906,0.273,34.454-14.833,34.727-33.738c0-0.03-0.003-0.059-0.003-0.088
											L554.138,410.086z"/>
									</g>
								</g>
							</g>
						</g>
					</g>
				</g>
				<g>
					<g>
						<g>
							<g>
								<g>
									<g>
										<path style="fill:#FAFAFA;" d="M564.332,410.321c-0.191,13.273,10.413,24.189,23.686,24.38
											c13.274,0.191,24.189-10.414,24.381-23.687c0.191-13.273-10.414-24.189-23.687-24.38
											C575.438,386.443,564.523,397.048,564.332,410.321z"/>
									</g>
								</g>
							</g>
						</g>
					</g>
				</g>
				<g>
					<g>
						<g>
							<g>
								<g>
									<g>
										<path style="fill:#E0E0E0;" d="M588.711,386.634c-13.273-0.191-24.188,10.414-24.38,23.687l48.067,0.693
											C612.59,397.741,601.985,386.826,588.711,386.634z"/>
									</g>
								</g>
							</g>
						</g>
					</g>
				</g>
				<g>
					<g>
						<g>
							<g>
								<g>
									<g>
										<path style="fill:#263238;" d="M573.725,410.457c-0.117,8.086,6.343,14.735,14.428,14.851
											c8.086,0.117,14.735-6.343,14.852-14.429c0.117-8.086-6.344-14.735-14.429-14.851
											C580.491,395.911,573.842,402.371,573.725,410.457z"/>
									</g>
								</g>
							</g>
						</g>
					</g>
				</g>
			</g>
			<g>
				<path style="fill:#263238;" d="M632.92,386.298c-0.008,0.004-0.064-0.076-0.166-0.237c-0.115-0.187-0.26-0.424-0.44-0.72
					c-0.196-0.329-0.429-0.721-0.701-1.177c-0.268-0.47-0.588-1.006-1.004-1.574c-1.522-2.358-4.039-5.593-7.719-9.005
					c-0.884-0.892-1.952-1.668-2.995-2.553c-1.068-0.855-2.254-1.65-3.457-2.5c-1.269-0.749-2.519-1.633-3.933-2.322
					c-0.697-0.36-1.393-0.751-2.119-1.102c-0.738-0.328-1.486-0.66-2.243-0.996c-3.064-1.243-6.367-2.403-9.921-3.034
					c-3.539-0.668-7.275-0.994-11.095-0.842c-3.818,0.213-7.507,0.892-10.968,1.895c-3.479,0.967-6.656,2.437-9.589,3.966
					c-0.722,0.407-1.435,0.809-2.138,1.206c-0.69,0.418-1.345,0.873-2.005,1.299c-1.342,0.821-2.502,1.82-3.694,2.686
					c-1.117,0.96-2.221,1.864-3.203,2.818c-0.955,0.98-1.943,1.854-2.739,2.827c-3.339,3.747-5.536,7.207-6.826,9.699
					c-0.359,0.605-0.627,1.169-0.849,1.663c-0.227,0.48-0.422,0.892-0.585,1.238c-0.152,0.311-0.274,0.561-0.37,0.758
					c-0.086,0.17-0.134,0.255-0.143,0.252c-0.008-0.003,0.023-0.095,0.093-0.272c0.084-0.203,0.19-0.46,0.323-0.78
					c0.151-0.353,0.331-0.773,0.541-1.263c0.208-0.502,0.462-1.075,0.809-1.69c1.241-2.532,3.403-6.043,6.731-9.85
					c0.793-0.987,1.78-1.876,2.735-2.872c0.982-0.968,2.089-1.888,3.209-2.863c1.196-0.882,2.361-1.896,3.711-2.731
					c0.664-0.432,1.323-0.895,2.017-1.32c0.708-0.403,1.426-0.812,2.153-1.226c2.954-1.556,6.159-3.049,9.673-4.033
					c3.495-1.02,7.225-1.711,11.088-1.926c3.865-0.154,7.642,0.18,11.218,0.862c3.59,0.645,6.923,1.826,10.011,3.093
					c0.763,0.343,1.516,0.681,2.259,1.015c0.732,0.357,1.432,0.754,2.133,1.122c1.423,0.703,2.679,1.601,3.954,2.365
					c1.208,0.864,2.397,1.674,3.467,2.544c1.046,0.9,2.113,1.691,2.997,2.598c3.676,3.473,6.163,6.763,7.639,9.165
					c0.404,0.579,0.712,1.126,0.967,1.606c0.256,0.468,0.475,0.869,0.659,1.206c0.162,0.306,0.293,0.552,0.396,0.745
					C632.887,386.205,632.927,386.294,632.92,386.298z"/>
			</g>
			<g>
				<path style="fill:#263238;" d="M465.527,392.601c-0.008,0.003-0.053-0.089-0.132-0.273c-0.087-0.211-0.199-0.48-0.338-0.817
					c-0.15-0.371-0.33-0.814-0.539-1.332c-0.235-0.523-0.503-1.12-0.803-1.788c-1.244-2.666-3.238-6.472-6.475-10.631
					c-3.234-4.109-7.729-8.71-13.937-11.873c-3.087-1.577-6.6-2.66-10.299-3.43c-3.702-0.767-7.624-1.138-11.633-1.06
					c-4.009,0.075-7.918,0.569-11.585,1.49c-3.667,0.926-7.072,2.285-10.12,3.954c-6.136,3.295-10.963,7.44-14.388,11.428
					c-3.447,3.984-5.641,7.679-7.051,10.262c-0.696,1.3-1.223,2.317-1.557,3.019c-0.165,0.325-0.297,0.585-0.4,0.789
					c-0.093,0.177-0.144,0.265-0.153,0.262s0.027-0.1,0.104-0.284c0.091-0.209,0.208-0.477,0.354-0.811
					c0.304-0.717,0.803-1.751,1.473-3.069c1.359-2.619,3.514-6.362,6.951-10.407c3.413-4.047,8.262-8.263,14.437-11.608
					c3.07-1.697,6.522-3.085,10.225-4.027c3.705-0.939,7.653-1.44,11.701-1.517c4.048-0.079,8.007,0.299,11.744,1.081
					c3.731,0.784,7.282,1.888,10.415,3.502c6.284,3.233,10.789,7.908,14.01,12.075c3.224,4.217,5.177,8.07,6.369,10.772
					c0.285,0.677,0.539,1.282,0.762,1.813c0.192,0.526,0.356,0.976,0.494,1.353c0.12,0.345,0.215,0.621,0.29,0.836
					C465.507,392.499,465.535,392.598,465.527,392.601z"/>
			</g>
			<rect x="221.387" y="392.916" style="fill:#263238;" width="151.785" height="17.751"/>
			<path style="fill:#455A64;" d="M369.06,400.447c0,2.441-1.979,4.421-4.421,4.421c-2.441,0-4.421-1.979-4.421-4.421
				c0-2.441,1.979-4.421,4.421-4.421C367.081,396.026,369.06,398.005,369.06,400.447z"/>
			<rect x="358.512" y="110.315" style="fill:#455A64;" width="12.67" height="251.684"/>
			<g>
				<path style="fill:#263238;" d="M551.357,376.34c0,0.144-21.357,0.26-47.695,0.26c-26.348,0-47.7-0.117-47.7-0.26
					s21.352-0.26,47.7-0.26C530,376.08,551.357,376.196,551.357,376.34z"/>
			</g>
			<g>
				<path style="fill:#263238;" d="M531.916,372.568c-0.144,0-0.26-9.289-0.26-20.745c0-11.46,0.117-20.747,0.26-20.747
					s0.26,9.287,0.26,20.747C532.176,363.279,532.06,372.568,531.916,372.568z"/>
			</g>
			<rect x="357.146" y="104.545" style="fill:#263238;" width="25.857" height="11.54"/>
			<rect x="356.523" y="359.924" style="fill:#263238;" width="16.649" height="33.222"/>
		</g>
		<g>
			<g>
				<rect x="230.328" y="312.79" style="fill:#E8505B;" width="104.184" height="80.356"/>
				<rect x="230.328" y="312.79" style="opacity:0.3;" width="104.184" height="80.356"/>
				<g>
					<path style="fill:#263238;" d="M308.409,392.578c-0.093,0-0.168-17.911-0.168-40.001c0-22.097,0.075-40.005,0.168-40.005
						s0.168,17.908,0.168,40.005C308.578,374.667,308.502,392.578,308.409,392.578z"/>
				</g>
				<rect x="317.691" y="374.856" style="fill:#F5F5F5;" width="7.987" height="9.029"/>
				<rect x="262.112" y="312.997" style="fill:#263238;" width="11.834" height="17.146"/>
				<rect x="262.112" y="375.761" style="fill:#263238;" width="11.834" height="17.146"/>
			</g>
			<g>
				<path style="fill:#263238;" d="M333.604,312.79c0,0.006-0.09,0.012-0.267,0.017c-0.192,0.004-0.451,0.01-0.783,0.017
					c-0.706,0.007-1.716,0.018-3.009,0.032c-2.631,0.013-6.408,0.031-11.067,0.053c-9.359,0.012-22.261,0.029-36.511,0.048
					c-14.255-0.019-27.157-0.036-36.517-0.049c-4.659-0.022-8.435-0.04-11.066-0.053c-1.293-0.013-2.303-0.024-3.009-0.031
					c-0.331-0.007-0.59-0.013-0.782-0.017c-0.176-0.006-0.267-0.011-0.267-0.017s0.09-0.012,0.267-0.017
					c0.192-0.004,0.451-0.01,0.782-0.017c0.706-0.008,1.716-0.018,3.009-0.032c2.631-0.013,6.407-0.031,11.066-0.054
					c9.359-0.013,22.262-0.03,36.517-0.05c14.25,0.02,27.151,0.037,36.511,0.05c4.659,0.023,8.436,0.041,11.067,0.054
					c1.293,0.014,2.303,0.024,3.009,0.032c0.331,0.007,0.59,0.013,0.783,0.017C333.513,312.779,333.604,312.784,333.604,312.79z"/>
			</g>
		</g>
		<g>
			<g>
				<rect x="121.055" y="312.79" style="fill:#E8505B;" width="104.184" height="80.356"/>
				<g>
					<path style="fill:#263238;" d="M199.136,392.578c-0.093,0-0.168-17.911-0.168-40.001c0-22.097,0.075-40.005,0.168-40.005
						c0.093,0,0.168,17.908,0.168,40.005C199.304,374.667,199.229,392.578,199.136,392.578z"/>
				</g>
				<rect x="208.418" y="374.856" style="fill:#F5F5F5;" width="7.987" height="9.029"/>
				<rect x="152.838" y="312.997" style="opacity:0.5;fill:#FFFFFF;" width="11.834" height="17.146"/>
				<rect x="152.838" y="375.761" style="opacity:0.5;fill:#FFFFFF;" width="11.834" height="17.146"/>
			</g>
			<g>
				<path style="fill:#263238;" d="M224.33,312.79c0,0.006-0.09,0.012-0.267,0.017c-0.192,0.004-0.451,0.01-0.783,0.017
					c-0.706,0.007-1.716,0.018-3.009,0.032c-2.631,0.013-6.407,0.031-11.067,0.053c-9.359,0.012-22.261,0.029-36.51,0.048
					c-14.255-0.019-27.157-0.036-36.517-0.049c-4.659-0.022-8.435-0.04-11.066-0.053c-1.292-0.013-2.303-0.024-3.009-0.031
					c-0.331-0.007-0.59-0.013-0.782-0.017c-0.176-0.006-0.267-0.011-0.267-0.017s0.09-0.012,0.267-0.017
					c0.192-0.004,0.451-0.01,0.782-0.017c0.706-0.008,1.716-0.018,3.009-0.032c2.631-0.013,6.407-0.031,11.066-0.054
					c9.359-0.013,22.262-0.03,36.517-0.05c14.25,0.02,27.151,0.037,36.51,0.05c4.659,0.023,8.436,0.041,11.067,0.054
					c1.293,0.014,2.303,0.024,3.009,0.032c0.331,0.007,0.59,0.013,0.783,0.017C224.24,312.779,224.33,312.784,224.33,312.79z"/>
			</g>
		</g>
		<g>
			<path style="fill:#E8505B;" d="M653.52,334.635c5.372,1.293,9.877,6.748,9.787,12.273c-0.089,5.525-4.376,10.701-9.787,11.819"/>
			<g style="opacity:0.6;">
				<path style="fill:#FFFFFF;" d="M653.52,334.635c5.372,1.293,9.877,6.748,9.787,12.273c-0.089,5.525-4.376,10.701-9.787,11.819"
					/>
			</g>
			<g>
				<rect x="649.147" y="331.53" style="fill:#E8505B;" width="4.593" height="30.413"/>
				<rect x="649.147" y="331.53" style="opacity:0.3;" width="4.593" height="30.413"/>
			</g>
		</g>
	</g>
</g>
<g id="Character">
	<path style="fill:#EB996E;" d="M455.795,198.496"/>
	<g>
		<g>
			<path style="fill:#FFBE9D;" d="M435.351,209.674c-1.144-0.882-1.464-2.474-0.75-3.73c0.765-1.347,1.67-2.926,2.08-3.581
				c0.895-1.43,1.492-2.641,1.367-2.423c0,0,0.389-1.708,2.1-2.001c1.711-0.293,3.676,0.108,3.676,0.108l12.509,2.699l5.824,2.887
				l-5.67,4.995l-3.147-0.96c-0.945,0.826-4.657,1.256-5.914,1.101c-1.611-0.198-4.836-1.245-6.668-0.895l-1.762,0.243l0.839,0.707
				c0,0,2.72-0.217,4.442,0.907c1.017,0.664,0.599,2.243-0.613,2.322l-4.112,0.269c0,0-2.717-1.331-3.203-1.826
				C436.185,210.331,435.797,210.018,435.351,209.674z"/>
			<g>
				<path style="fill:#EB996E;" d="M438.995,208.117c0.009,0.025-0.22,0.157-0.679,0.279c-0.451,0.113-1.169,0.253-2.022-0.025
					c-0.418-0.141-0.86-0.398-1.195-0.829c-0.32-0.451-0.505-1.027-0.375-1.666c0.071-0.313,0.252-0.623,0.52-0.835
					c0.27-0.23,0.583-0.318,0.861-0.428c0.582-0.202,1.194-0.349,1.823-0.475c1.259-0.246,2.468-0.379,3.571-0.457
					c0.552-0.037,1.075-0.063,1.575-0.059c0.121-0.001,0.256,0.007,0.379,0.016c0.089,0.007,0.193,0,0.298-0.011
					c0.212-0.03,0.42-0.07,0.618-0.118c1.591-0.404,2.563-0.767,2.59-0.688c0.021,0.056-0.891,0.537-2.496,1.044
					c-0.202,0.061-0.419,0.116-0.654,0.16c-0.12,0.018-0.246,0.035-0.393,0.03c-0.112-0.003-0.217-0.005-0.34,0
					c-0.477,0.014-0.996,0.055-1.538,0.105c-1.085,0.103-2.279,0.249-3.509,0.49c-0.613,0.123-1.207,0.263-1.757,0.446
					c-0.584,0.169-0.966,0.427-1.081,0.895c-0.112,0.44,0.026,0.955,0.257,1.296c0.252,0.354,0.619,0.598,0.975,0.74
					c0.728,0.287,1.41,0.224,1.855,0.171C438.73,208.141,438.982,208.074,438.995,208.117z"/>
			</g>
			<g>
				<path style="fill:#EB996E;" d="M440.55,201.597c0.135-0.036,0.378,0.624,0.133,1.416c-0.24,0.793-0.811,1.205-0.902,1.099
					c-0.107-0.103,0.21-0.592,0.404-1.252C440.393,202.206,440.404,201.622,440.55,201.597z"/>
			</g>
			<g>
				<path style="fill:#EB996E;" d="M442.508,202.391c0.14,0.014,0.179,0.502-0.165,0.949c-0.343,0.448-0.824,0.536-0.874,0.404
					c-0.06-0.134,0.209-0.385,0.461-0.721C442.19,202.693,442.362,202.368,442.508,202.391z"/>
			</g>
		</g>
		<path style="fill:#FFBE9D;" d="M491.758,199.596c1.725-0.714-9.883,11.211-9.883,11.211l-21.44-7.99l-7.569,4.649l23.058,16.233
			c2.69,1.894,6.033,2.615,9.264,2c2.464-0.469,4.723-1.691,6.465-3.495l13.607-15.729L491.758,199.596z"/>
		<g>
			<g>
				<path style="fill:#E8505B;" d="M504.33,151.798c-2.99-0.573-4.864-1.497-4.942-2.648c-0.161-2.377,7.391-4.824,16.867-5.466
					c9.477-0.642,17.289,0.764,17.45,3.141c0.078,1.146-1.637,2.308-4.495,3.276"/>
			</g>
			<g style="opacity:0.4;">
				<path d="M505.962,151.604c-2.65-0.508-4.377-1.324-4.38-2.348c-0.009-2.847,6.551-4.275,14.95-4.845
					c8.399-0.569,15.324,0.677,15.467,2.784c0.069,1.015-1.451,2.045-3.984,2.904"/>
			</g>
			<g>
				<path style="fill:#E8505B;" d="M501.672,147.872c0,0,1.77-10.253,1.947-10.758c0.177-0.505,2.752-5.117,9.538-6.844l5.679-0.385
					c0,0,8.239,2.048,9.844,3.911c1.605,1.863,2.882,11.356,2.882,11.356l-16.161-2.383l-10.652,3.376L501.672,147.872z"/>
			</g>
			<g>
				<path style="fill:#E8505B;" d="M514.937,128.988c-0.217,0.015-2.438,0.165-2.438,0.165s-0.8,0.855-0.795,2.628
					c0.006,1.773,0.428,13.912,0.428,13.912l7.097-0.806l-1.241-14.945l2.454,0.373l-0.133-0.843l-0.692-0.713L514.937,128.988z"/>
			</g>
			<g>
				<g>
					<g>
						<g>
							<g>
								<g>
									<g>
										<g>
											<g>
												<g>
													<g>
														<g>
															<g>
																<g>
																	<path style="fill:#FFBE9D;" d="M529.78,184.871l-17.401,0.38c-0.223-1.833-0.055-13.285-0.055-13.285
																		s-6.626-0.575-7.151-7.125c-0.525-6.55-0.417-19.706-0.417-19.706l0.072-0.58
																		c7.368-3.776,16.138-4.663,23.025-0.068l1.022,0.682L529.78,184.871z"/>
																</g>
															</g>
														</g>
													</g>
												</g>
											</g>
											<g>
												<g>
													<g>
														<g>
															<g>
																<g>
																	<path style="fill:#EB996E;" d="M512.324,171.966c0,0,4.149-0.037,8.365-3.102c0,0-1.805,4.953-8.386,4.805
																		L512.324,171.966z"/>
																</g>
															</g>
														</g>
													</g>
												</g>
											</g>
										</g>
									</g>
								</g>
								<g>
									<g>
										<g>
											<g>
												<g>
													<g>
														<g>
															<path style="fill:#FFBE9D;" d="M528.528,152.014c0.109-0.056,4.414-1.638,4.575,2.854
																c0.16,4.492-4.382,3.726-4.395,3.598C528.696,158.337,528.528,152.014,528.528,152.014z"/>
														</g>
													</g>
												</g>
											</g>
										</g>
									</g>
									<g>
										<g>
											<g>
												<g>
													<g>
														<g>
															<g>
																<path style="fill:#EB996E;" d="M530.02,156.714c0.019-0.015,0.08,0.052,0.214,0.108
																	c0.131,0.054,0.354,0.087,0.585-0.009c0.468-0.191,0.841-0.959,0.834-1.769c-0.003-0.409-0.103-0.795-0.259-1.113
																	c-0.149-0.324-0.37-0.546-0.61-0.579c-0.24-0.047-0.404,0.103-0.454,0.231c-0.056,0.128-0.024,0.217-0.047,0.225
																	c-0.012,0.012-0.099-0.072-0.07-0.258c0.015-0.09,0.064-0.198,0.167-0.288c0.105-0.091,0.262-0.142,0.429-0.13
																	c0.347,0.012,0.67,0.319,0.842,0.667c0.191,0.349,0.313,0.783,0.316,1.242c0.004,0.906-0.43,1.77-1.072,1.981
																	c-0.313,0.094-0.58,0.008-0.72-0.093C530.031,156.823,530.004,156.723,530.02,156.714z"/>
															</g>
														</g>
													</g>
												</g>
											</g>
										</g>
									</g>
								</g>
								<g>
									<g>
										<g>
											<g>
												<g>
													<g>
														<g>
															<g>
																<g>
																	<g>
																		<g>
																			<g>
																				<path style="fill:#263238;" d="M506.934,153.223c0.016,0.495,0.449,0.891,0.967,0.883
																					c0.517-0.007,0.924-0.414,0.908-0.91c-0.016-0.496-0.449-0.891-0.966-0.884
																					C507.325,152.32,506.917,152.727,506.934,153.223z"/>
																			</g>
																		</g>
																	</g>
																</g>
															</g>
														</g>
														<g>
															<g>
																<g>
																	<g>
																		<g>
																			<g>
																				<g>
																					<path style="fill:#263238;" d="M506.63,152.298c0.124,0.114,0.798-0.459,1.806-0.524
																						c1.005-0.08,1.78,0.388,1.881,0.258c0.05-0.058-0.083-0.271-0.421-0.483c-0.333-0.212-0.889-0.402-1.516-0.357
																						c-0.627,0.046-1.139,0.313-1.427,0.57C506.659,152.019,506.569,152.247,506.63,152.298z"/>
																				</g>
																			</g>
																		</g>
																	</g>
																</g>
															</g>
														</g>
													</g>
													<g>
														<g>
															<g>
																<g>
																	<g>
																		<g>
																			<g>
																				<path style="fill:#263238;" d="M516.858,152.854c0.016,0.496,0.449,0.891,0.967,0.883
																					c0.517-0.007,0.924-0.414,0.908-0.909c-0.016-0.496-0.449-0.891-0.966-0.884
																					C517.249,151.951,516.842,152.359,516.858,152.854z"/>
																			</g>
																		</g>
																	</g>
																</g>
															</g>
														</g>
														<g>
															<g>
																<g>
																	<g>
																		<g>
																			<g>
																				<g>
																					<path style="fill:#263238;" d="M516.546,151.815c0.124,0.114,0.799-0.459,1.806-0.524
																						c1.005-0.08,1.78,0.388,1.881,0.257c0.05-0.058-0.082-0.271-0.421-0.483c-0.333-0.212-0.888-0.403-1.516-0.357
																						c-0.627,0.046-1.139,0.313-1.427,0.57C516.576,151.536,516.485,151.764,516.546,151.815z"/>
																				</g>
																			</g>
																		</g>
																	</g>
																</g>
															</g>
														</g>
													</g>
													<g>
														<g>
															<g>
																<g>
																	<g>
																		<g>
																			<g>
																				<path style="fill:#263238;" d="M513.396,159.534c0.001-0.058-0.633-0.123-1.656-0.184
																					c-0.259-0.009-0.506-0.044-0.561-0.216c-0.073-0.182,0.016-0.466,0.12-0.774c0.2-0.639,0.409-1.309,0.628-2.01
																					c0.868-2.861,1.477-5.206,1.361-5.24c-0.116-0.034-0.912,2.257-1.78,5.118c-0.208,0.705-0.407,1.377-0.595,2.02
																					c-0.078,0.299-0.223,0.642-0.065,1.019c0.082,0.188,0.281,0.314,0.448,0.347
																					c0.168,0.039,0.313,0.032,0.441,0.031C512.762,159.63,513.396,159.591,513.396,159.534z"/>
																			</g>
																		</g>
																	</g>
																</g>
															</g>
														</g>
													</g>
													<g>
														<g>
															<g>
																<g>
																	<g>
																		<g>
																			<g>
																				<path style="fill:#263238;" d="M516.408,160.03c-0.165,0.002-0.093,1.095-0.976,1.935
																					c-0.882,0.842-2.056,0.798-2.054,0.952c-0.011,0.07,0.274,0.195,0.767,0.175
																					c0.484-0.016,1.178-0.219,1.719-0.732c0.539-0.515,0.741-1.166,0.748-1.617
																					C516.623,160.281,516.482,160.018,516.408,160.03z"/>
																			</g>
																		</g>
																	</g>
																</g>
															</g>
														</g>
													</g>
												</g>
											</g>
										</g>
										<g>
											<g>
												<g>
													<g>
														<g>
															<g>
																<path style="fill:#263238;" d="M516.018,147.884c0.118,0.267,1.115,0.069,2.307,0.132
																	c1.193,0.038,2.17,0.32,2.31,0.063c0.062-0.122-0.122-0.369-0.525-0.608c-0.4-0.239-1.026-0.449-1.741-0.48
																	c-0.715-0.029-1.357,0.127-1.776,0.331C516.17,147.527,515.967,147.757,516.018,147.884z"/>
															</g>
														</g>
													</g>
												</g>
											</g>
										</g>
										<g>
											<g>
												<g>
													<g>
														<g>
															<g>
																<path style="fill:#263238;" d="M506.803,149.357c0.193,0.217,0.87-0.068,1.704-0.135
																	c0.831-0.097,1.551,0.049,1.698-0.201c0.063-0.121-0.063-0.343-0.387-0.538c-0.319-0.195-0.84-0.337-1.412-0.281
																	c-0.572,0.057-1.055,0.298-1.329,0.552C506.798,149.008,506.717,149.251,506.803,149.357z"/>
															</g>
														</g>
													</g>
												</g>
											</g>
										</g>
									</g>
								</g>
							</g>
						</g>
					</g>
				</g>
			</g>
			<g>
				<path style="fill:#263238;" d="M528.98,147.746c-0.051,1.83,0.131,3.668,0.08,5.498c-0.019,0.682-0.273,1.37-0.52,2.006
					c-0.246,0.636-0.764,1.21-1.435,1.33c-0.79,0.141-1.581-0.389-1.984-1.083c-0.403-0.694-0.498-1.52-0.558-2.321
					c-0.06-0.801-0.098-1.621-0.407-2.362c-0.346-0.831-1.001-1.486-1.514-2.226c-0.513-0.739-0.895-1.68-0.594-2.528
					C524.48,145.856,526.786,146.68,528.98,147.746"/>
			</g>
			<g>
				<path style="fill:#455A64;" d="M504.761,148.565l-0.109-3.677l10.498-3.918l13.647,3.036l0.267,3.942
					C529.064,147.948,517.802,143.033,504.761,148.565z"/>
			</g>
			<g>
				<path style="fill:#E8505B;" d="M505.268,144.065l-0.44,0.489l-3.692,2.683c0,0,7.266-2.585,14.939-3.022
					c7.673-0.437,16.617,1.556,16.617,1.556l-5.286-2.711l0,0c-1.73-1.616-4.041-2.464-6.407-2.35l-9.637,0.464
					C509.027,141.286,506.833,142.327,505.268,144.065z"/>
			</g>
			<g>
				<g>
					<path style="fill:#263238;" d="M511.969,140.873c0.111-0.001,0.174-2.301,0.14-5.135c-0.034-2.835-0.152-5.132-0.264-5.13
						c-0.111,0.001-0.174,2.3-0.14,5.135C511.74,138.577,511.858,140.874,511.969,140.873z"/>
				</g>
			</g>
			<g>
				<g>
					<path style="fill:#263238;" d="M520.442,130.315c-0.008-0.046-0.645-0.23-1.841-0.399c-0.348,0.016-0.721,0.333-0.725,0.772
						c0.022,0.348,0.045,0.708,0.069,1.081c0.06,0.77,0.124,1.587,0.191,2.445c0.147,1.734,0.303,3.303,0.436,4.436
						c0.133,1.134,0.243,1.833,0.298,1.83s0.046-0.71-0.014-1.849c-0.06-1.139-0.171-2.711-0.318-4.446
						c-0.078-0.857-0.153-1.674-0.223-2.443c-0.036-0.363-0.071-0.714-0.105-1.053c-0.013-0.252,0.201-0.464,0.419-0.489
						C519.694,130.293,520.448,130.38,520.442,130.315z"/>
				</g>
			</g>
			<g>
				<g>
					<path style="fill:#263238;" d="M500.894,147.207c0.017,0.027,0.437-0.214,1.243-0.563c0.4-0.181,0.898-0.389,1.453-0.695
						c0.544-0.309,1.176-0.737,1.61-1.442c0.474-0.697,0.504-1.629,1.031-2.327c0.486-0.74,1.539-0.807,2.554-0.915
						c2.062-0.224,4.337-0.397,6.729-0.495c2.392-0.099,4.676-0.117,6.751-0.098c1.018,0.005,2.02,0.122,2.683,0.698
						c0.333,0.283,0.604,0.635,0.875,0.967c0.138,0.166,0.274,0.329,0.407,0.489l0.208,0.23c0.089,0.094,0.212,0.15,0.296,0.19
						c1.48,0.598,2.686,0.96,3.512,1.27c0.828,0.292,1.279,0.472,1.292,0.444c0.006-0.013-0.1-0.073-0.308-0.177
						c-0.209-0.102-0.52-0.244-0.927-0.413c-0.803-0.352-2.024-0.768-3.446-1.381c-0.091-0.048-0.154-0.075-0.203-0.13l-0.196-0.227
						c-0.128-0.16-0.258-0.323-0.39-0.488c-0.265-0.336-0.533-0.704-0.901-1.028c-0.762-0.676-1.865-0.799-2.894-0.816
						c-2.083-0.04-4.372-0.033-6.774,0.066c-2.401,0.098-4.685,0.283-6.754,0.529c-0.514,0.065-1.025,0.106-1.525,0.245
						c-0.493,0.128-0.988,0.421-1.259,0.845c-0.579,0.823-0.582,1.752-1.003,2.372c-0.381,0.655-0.961,1.077-1.481,1.396
						c-0.529,0.316-1.016,0.545-1.407,0.748c-0.393,0.199-0.692,0.369-0.889,0.492C500.985,147.122,500.887,147.195,500.894,147.207
						z"/>
				</g>
			</g>
			<g>
				<g>
					<path style="fill:#263238;" d="M502.366,147.679c0.009,0.011,0.105-0.045,0.276-0.16c0.165-0.123,0.423-0.282,0.769-0.464
						c0.688-0.367,1.738-0.798,3.088-1.172c2.695-0.742,6.558-1.363,10.839-1.262c2.153,0.008,4.196-0.036,6.044,0.08
						c1.838,0.136,3.511,0.369,4.887,0.601c0.69,0.123,1.307,0.261,1.845,0.404c0.538,0.135,0.983,0.3,1.268,0.548
						c0.588,0.521,0.435,1.055,0.471,1.033c0.009,0.003,0.064-0.102,0.053-0.32c-0.013-0.213-0.117-0.54-0.419-0.83
						c-0.298-0.293-0.775-0.491-1.311-0.648c-0.538-0.165-1.159-0.325-1.853-0.467c-1.393-0.271-3.043-0.531-4.916-0.691
						c-1.869-0.138-3.923-0.105-6.067-0.113c-4.317-0.102-8.217,0.57-10.922,1.392c-1.355,0.413-2.408,0.893-3.085,1.309
						c-0.34,0.207-0.588,0.39-0.74,0.536C502.434,147.592,502.357,147.669,502.366,147.679z"/>
				</g>
			</g>
			<g>
				<g>
					<path style="fill:#FAFAFA;" d="M513.545,129.395c0.001,0.022,0.385,0.023,1.005,0.007c0.834-0.033,1.597-0.064,2.42-0.096
						c0.943-0.026,1.807-0.147,2.407-0.087c0.628,0.055,0.831,0.452,0.844,0.429c0.006-0.002-0.021-0.102-0.146-0.232
						c-0.123-0.133-0.367-0.259-0.681-0.31c-0.635-0.092-1.485,0.013-2.431,0.038c-0.822,0.049-1.585,0.094-2.418,0.143
						C513.927,129.334,513.544,129.373,513.545,129.395z"/>
				</g>
			</g>
			<g>
				<g>
					<path style="fill:#FAFAFA;" d="M513.133,141.272c0,0.011,0.181,0.014,0.508,0.01c0.424-0.006,0.881-0.013,1.383-0.02
						c1.167-0.016,2.78-0.03,4.56-0.001c0.881,0.022,1.721,0.043,2.51,0.062c0.77,0.035,1.471,0.021,2.029,0.16
						c0.562,0.129,0.946,0.431,1.137,0.684c0.196,0.255,0.225,0.443,0.242,0.436c0,0-0.003-0.194-0.192-0.473
						c-0.182-0.276-0.578-0.609-1.159-0.758c-0.579-0.158-1.282-0.154-2.051-0.198c-0.772-0.034-1.621-0.061-2.513-0.075
						c-1.783-0.029-3.398,0.003-4.566,0.048c-0.501,0.026-0.958,0.05-1.382,0.072C513.312,141.243,513.132,141.261,513.133,141.272z
						"/>
				</g>
			</g>
			<g>
				<g>
					<path style="fill:#FAFAFA;" d="M518.397,139.491c0.011-0.002,0-0.131-0.03-0.363c-0.044-0.323-0.087-0.648-0.133-0.982
						c-0.113-0.828-0.259-1.974-0.383-3.243c-0.123-1.269-0.202-2.422-0.251-3.256c-0.02-0.337-0.04-0.664-0.06-0.989
						c-0.016-0.234-0.029-0.363-0.04-0.363c-0.011,0-0.019,0.13-0.022,0.364c-0.004,0.234-0.002,0.573,0.008,0.992
						c0.02,0.837,0.081,1.994,0.204,3.267c0.125,1.272,0.289,2.419,0.431,3.244c0.071,0.413,0.134,0.746,0.184,0.975
						C518.354,139.367,518.386,139.493,518.397,139.491z"/>
				</g>
			</g>
			<g>
				<g>
					<path style="fill:#FAFAFA;" d="M526.722,143.467c-0.004,0.01,0.109,0.061,0.315,0.142c0.292,0.11,0.583,0.219,0.879,0.331
						c0.928,0.329,1.879,0.665,2.92,1.034c0.57,0.203,1.126,0.363,1.579,0.605c0.457,0.236,0.791,0.574,0.936,0.932
						c0.153,0.355,0.142,0.681,0.084,0.887c-0.062,0.207-0.143,0.304-0.13,0.313c0,0,0.104-0.079,0.19-0.293
						c0.081-0.212,0.112-0.564-0.038-0.949c-0.14-0.39-0.499-0.768-0.97-1.019c-0.471-0.261-1.029-0.424-1.597-0.627
						c-1.047-0.353-2.003-0.675-2.935-0.989c-0.302-0.095-0.598-0.189-0.896-0.282C526.846,143.486,526.726,143.456,526.722,143.467
						z"/>
				</g>
			</g>
		</g>
		<g>
			<g>
				<g>
					<g>
						<g>
							<path style="fill:#E8505B;" d="M452.814,322.184l0.905,16.233c0,0-16.196,6.372-16.32,9.388l31.537-0.625l-0.372-25.351
								L452.814,322.184z"/>
						</g>
						<g style="opacity:0.4;">
							<path d="M452.814,322.184l0.905,16.233c0,0-16.196,6.372-16.32,9.388l31.537-0.625l-0.372-25.351L452.814,322.184z"/>
						</g>
						<g>
							<g>
								<path style="fill:#E0E0E0;" d="M463.444,336.857c0.614,0.155,1.049,0.833,0.92,1.452c-0.129,0.62-0.815,1.068-1.431,0.924
									c-0.616-0.144-1.164-0.942-0.966-1.543c0.198-0.601,1.032-1.084,1.595-0.796"/>
							</g>
						</g>
						<g>
							<path style="fill:#E0E0E0;" d="M468.936,347.18l-0.137-2.554l-30.186,1.554c0,0-1.392,0.639-1.214,1.625L468.936,347.18z"/>
						</g>
						<g>
							<g>
								<path style="fill:#263238;" d="M453.205,338.266c0.008,0.154,0.78,0.208,1.547,0.689c0.78,0.46,1.184,1.119,1.324,1.056
									c0.141-0.033-0.107-0.949-1.046-1.514C454.096,337.923,453.169,338.125,453.205,338.266z"/>
							</g>
						</g>
						<g>
							<g>
								<path style="fill:#263238;" d="M449.924,339.7c-0.032,0.15,0.64,0.399,1.176,1.04c0.555,0.625,0.701,1.327,0.854,1.317
									c0.145,0.021,0.234-0.883-0.448-1.667C450.832,339.599,449.925,339.553,449.924,339.7z"/>
							</g>
						</g>
						<g>
							<g>
								<path style="fill:#263238;" d="M448.124,343.696c0.141,0.03,0.34-0.744-0.072-1.579c-0.406-0.839-1.139-1.157-1.202-1.027
									c-0.084,0.128,0.392,0.572,0.72,1.263C447.914,343.035,447.971,343.684,448.124,343.696z"/>
							</g>
						</g>
						<g>
							<g>
								<path style="fill:#263238;" d="M453.409,334.544c0.067,0.139,0.77-0.087,1.641-0.046c0.873,0.024,1.556,0.303,1.633,0.169
									c0.087-0.113-0.586-0.67-1.613-0.705C454.044,333.92,453.331,334.424,453.409,334.544z"/>
							</g>
						</g>
					</g>
					<g style="opacity:0.3;">
						<polygon points="452.997,325.399 453.155,328.292 468.652,327.843 468.62,325.234 						"/>
					</g>
					<g>
						<g>
							<path style="fill:#263238;" d="M453.287,331.266c0,0.064,0.61,0.147,1.579-0.039c0.482-0.093,1.049-0.263,1.642-0.54
								c0.296-0.139,0.598-0.305,0.897-0.499c0.144-0.096,0.314-0.194,0.47-0.381c0.168-0.164,0.256-0.574,0.054-0.821
								c-0.166-0.239-0.454-0.338-0.682-0.339c-0.233-0.003-0.42,0.048-0.591,0.094c-0.35,0.092-0.676,0.215-0.975,0.357
								c-0.597,0.286-1.08,0.642-1.438,0.985c-0.718,0.692-0.957,1.272-0.903,1.301c0.071,0.049,0.417-0.44,1.151-1.014
								c0.366-0.286,0.834-0.583,1.393-0.822c0.28-0.118,0.582-0.22,0.901-0.298c0.332-0.094,0.616-0.102,0.705,0.045
								c0.032,0.056,0.037,0.078-0.031,0.178c-0.07,0.092-0.204,0.183-0.345,0.278c-0.275,0.188-0.553,0.351-0.825,0.493
								c-0.545,0.284-1.067,0.48-1.515,0.616C453.876,331.128,453.283,331.182,453.287,331.266z"/>
						</g>
					</g>
					<g>
						<g>
							<path style="fill:#263238;" d="M453.492,331.482c0.055,0.023,0.35-0.535,0.386-1.534c0.017-0.495-0.047-1.094-0.25-1.725
								c-0.103-0.315-0.242-0.636-0.421-0.951c-0.191-0.308-0.425-0.721-1.023-0.777c-0.312-0.006-0.567,0.243-0.651,0.453
								c-0.1,0.215-0.117,0.399-0.151,0.582c-0.051,0.37-0.037,0.73,0.02,1.064c0.113,0.669,0.398,1.222,0.707,1.618
								c0.633,0.805,1.279,0.976,1.291,0.924c0.05-0.078-0.493-0.365-0.98-1.141c-0.24-0.383-0.457-0.889-0.529-1.474
								c-0.037-0.291-0.038-0.601,0.011-0.913c0.042-0.336,0.163-0.609,0.289-0.577c0.157-0.006,0.428,0.242,0.563,0.506
								c0.168,0.28,0.302,0.566,0.408,0.848c0.209,0.566,0.306,1.11,0.337,1.57C453.561,330.881,453.408,331.461,453.492,331.482z"
								/>
						</g>
					</g>
				</g>
				<g>
					<g>
						<g>
							<g>
								<path style="fill:#263238;" d="M537.96,253.214c0,0-3.446,17.672-9.17,17.923c-7.023,0.307-57.855,1.002-57.855,1.002
									l3.098,56.615l-22.187-0.535l-8.866-55.787c-0.955-5.007-0.179-10.224,2.36-14.645c0.06-0.104,0.12-0.208,0.182-0.312
									c3.761-6.372,10.754-10.136,18.152-10.229l42.224-0.634L537.96,253.214z"/>
							</g>
						</g>
					</g>
				</g>
			</g>
			<g>
				<g>
					<g>
						<g>
							<path style="fill:#E8505B;" d="M461.435,322.184l0.905,16.233c0,0-16.196,6.372-16.32,9.388l31.537-0.625l-0.372-25.351
								L461.435,322.184z"/>
						</g>
						<g>
							<g>
								<path style="fill:#E0E0E0;" d="M472.065,336.857c0.614,0.155,1.049,0.833,0.92,1.452c-0.129,0.62-0.815,1.068-1.431,0.924
									c-0.616-0.144-1.164-0.942-0.966-1.543c0.198-0.601,1.032-1.084,1.595-0.796"/>
							</g>
						</g>
						<g>
							<path style="fill:#E0E0E0;" d="M477.557,347.18l-0.137-2.554l-30.186,1.554c0,0-1.392,0.639-1.214,1.625L477.557,347.18z"/>
						</g>
						<g>
							<g>
								<path style="fill:#263238;" d="M461.826,338.266c0.008,0.154,0.78,0.208,1.547,0.689c0.78,0.46,1.184,1.119,1.324,1.056
									c0.141-0.033-0.107-0.949-1.046-1.514C462.717,337.923,461.79,338.125,461.826,338.266z"/>
							</g>
						</g>
						<g>
							<g>
								<path style="fill:#263238;" d="M458.545,339.7c-0.032,0.15,0.64,0.399,1.176,1.04c0.555,0.625,0.701,1.327,0.854,1.317
									c0.145,0.021,0.234-0.883-0.448-1.667C459.453,339.599,458.546,339.553,458.545,339.7z"/>
							</g>
						</g>
						<g>
							<g>
								<path style="fill:#263238;" d="M456.745,343.696c0.141,0.03,0.34-0.744-0.072-1.579c-0.406-0.839-1.139-1.157-1.202-1.027
									c-0.085,0.128,0.392,0.572,0.72,1.263C456.534,343.035,456.592,343.684,456.745,343.696z"/>
							</g>
						</g>
						<g>
							<g>
								<path style="fill:#263238;" d="M462.03,334.544c0.067,0.139,0.77-0.087,1.641-0.046c0.872,0.024,1.555,0.303,1.633,0.169
									c0.087-0.113-0.586-0.67-1.613-0.705C462.665,333.92,461.952,334.424,462.03,334.544z"/>
							</g>
						</g>
					</g>
					<g style="opacity:0.3;">
						<polygon points="461.618,325.399 461.776,328.292 477.273,327.843 477.241,325.234 						"/>
					</g>
					<g>
						<g>
							<path style="fill:#263238;" d="M461.908,331.266c0,0.064,0.61,0.147,1.579-0.039c0.482-0.093,1.049-0.263,1.642-0.54
								c0.296-0.139,0.598-0.305,0.897-0.499c0.144-0.096,0.314-0.194,0.47-0.381c0.167-0.164,0.256-0.574,0.054-0.821
								c-0.166-0.239-0.454-0.338-0.682-0.339c-0.232-0.003-0.42,0.048-0.591,0.094c-0.35,0.092-0.677,0.215-0.975,0.357
								c-0.597,0.286-1.08,0.642-1.438,0.985c-0.718,0.692-0.957,1.272-0.903,1.301c0.071,0.049,0.417-0.44,1.151-1.014
								c0.366-0.286,0.834-0.583,1.393-0.822c0.28-0.118,0.582-0.22,0.901-0.298c0.332-0.094,0.617-0.102,0.705,0.045
								c0.032,0.056,0.037,0.078-0.031,0.178c-0.071,0.092-0.204,0.183-0.345,0.278c-0.275,0.188-0.553,0.351-0.825,0.493
								c-0.545,0.284-1.067,0.48-1.515,0.616C462.497,331.128,461.903,331.182,461.908,331.266z"/>
						</g>
					</g>
					<g>
						<g>
							<path style="fill:#263238;" d="M462.113,331.482c0.055,0.023,0.35-0.535,0.386-1.534c0.017-0.495-0.047-1.094-0.25-1.725
								c-0.103-0.315-0.242-0.636-0.421-0.951c-0.191-0.308-0.425-0.721-1.023-0.777c-0.312-0.006-0.567,0.243-0.651,0.453
								c-0.1,0.215-0.117,0.399-0.151,0.582c-0.051,0.37-0.037,0.73,0.02,1.064c0.112,0.669,0.398,1.222,0.707,1.618
								c0.633,0.805,1.279,0.976,1.291,0.924c0.05-0.078-0.493-0.365-0.98-1.141c-0.24-0.383-0.457-0.889-0.529-1.474
								c-0.037-0.291-0.038-0.601,0.011-0.913c0.043-0.336,0.163-0.609,0.289-0.577c0.157-0.006,0.428,0.242,0.563,0.506
								c0.168,0.28,0.302,0.566,0.408,0.848c0.209,0.566,0.306,1.11,0.337,1.57C462.182,330.881,462.028,331.461,462.113,331.482z"
								/>
						</g>
					</g>
				</g>
				<g>
					<g>
						<g>
							<g>
								<path style="fill:#263238;" d="M543.561,253.214c0,0-3.446,17.672-9.17,17.923c-7.023,0.307-57.855,1.002-57.855,1.002
									l3.098,56.615l-22.186-0.535l-8.866-55.787c-0.955-5.007-0.179-10.224,2.359-14.645c0.06-0.104,0.12-0.208,0.182-0.312
									c3.761-6.372,10.754-10.136,18.152-10.229l42.224-0.634L543.561,253.214z"/>
							</g>
						</g>
					</g>
				</g>
				<g>
					<g>
						<path style="fill:#E8505B;" d="M500.302,182.228l6.644,44.479l-4.526,19.98l41.14,12.111c3.715-5.314,3.86-22.209,3.73-34.158
							c-0.229-21.058,0.698-22.08-0.209-29.467c-0.896-7.299-2.465-12.138-6.366-14.459l-11.161-5.741c0,0-6.328,4.027-10.17,3.807
							c0,0-4.573,0.189-7.108-2.239C512.276,176.542,503.036,179.344,500.302,182.228z"/>
					</g>
				</g>
				<polygon style="fill:#E8505B;" points="500.302,182.228 486.589,201.13 505.26,212.089 503.834,205.218 				"/>
				<g>
					<path style="fill:#455A64;" d="M467.628,247.525c0,0.009-0.08,0.021-0.237,0.036c-0.187,0.015-0.415,0.032-0.694,0.054
						c-0.306,0.009-0.68,0.066-1.121,0.131c-0.444,0.047-0.947,0.158-1.511,0.286c-2.24,0.51-5.456,1.784-8.559,4.538
						c-1.536,1.377-3.024,3.11-4.271,5.189c-1.241,2.08-2.141,4.55-2.41,7.265c-0.304,2.71-0.081,5.593,0.322,8.547
						c0.404,2.956,0.984,6.016,1.305,9.185c0.709,6.307,1.661,12.284,2.553,17.714c0.917,5.418,1.743,10.301,2.44,14.42
						c0.69,4.107,1.222,7.435,1.552,9.74c0.153,1.12,0.274,2.007,0.363,2.657c0.032,0.279,0.058,0.506,0.08,0.693
						c0.015,0.157,0.018,0.238,0.01,0.239c-0.009,0.001-0.03-0.077-0.062-0.231c-0.035-0.185-0.078-0.41-0.131-0.685
						c-0.112-0.647-0.266-1.528-0.459-2.641c-0.413-2.338-0.997-5.644-1.715-9.709c-0.729-4.114-1.592-8.992-2.551-14.404
						c-0.918-5.43-1.887-11.412-2.598-17.736c-0.319-3.154-0.893-6.195-1.294-9.175c-0.399-2.973-0.617-5.899-0.293-8.669
						c0.285-2.77,1.234-5.326,2.516-7.433c1.289-2.111,2.82-3.862,4.399-5.244c3.188-2.765,6.479-4.004,8.759-4.459
						C466.323,247.378,467.628,247.525,467.628,247.525z"/>
				</g>
				<g>
					<g>
						<path style="fill:#FFBE9D;" d="M483.391,233.789c0,0,15.867,5.125,28.209,9.595c4.255,1.541,8.999,0.851,12.638-1.839l0,0
							c2.291-1.693,3.989-4.067,4.85-6.782l8.45-26.622l-14.108-4.938l-9.434,23.929l-35.093-4.615"/>
						<g>
							<path style="fill:#FFBE9D;" d="M462.403,228.297l-0.132-1.258c0.085-0.933,0.473-1.812,1.104-2.504l0,0
								c0.34-0.373,0.743-0.683,1.191-0.916l4.158-2.165c0.628-0.327,1.346-0.44,2.045-0.321l8.516,1.448l9.763,1.283l-2.02,11.112
								l-4.515-1.499c0,0-3.276,1.813-5.291,1.382c0,0-1.87,1.247-2.638,0.336c0,0-1.678,1.439-2.302,1.343s-1.87-0.815-1.822-1.247
								l0.048-0.576c0,0-1.247,0.624-2.062-0.096c-0.815-0.719-0.959-1.295-0.959-1.295s-1.535-0.192-2.11-0.911
								c-0.576-0.719-0.767-1.918-0.767-1.918S462.712,229.601,462.403,228.297z"/>
							<g>
								<path style="fill:#EB996E;" d="M468.676,224.272c0.06-0.006,0.163,0.454-0.046,1.16c-0.197,0.706-0.753,1.566-1.503,2.338
									c-0.749,0.768-1.444,1.399-1.877,1.921c-0.442,0.512-0.657,0.88-0.728,0.848c-0.061-0.024,0.042-0.466,0.433-1.068
									c0.38-0.609,1.068-1.313,1.796-2.06c0.723-0.746,1.27-1.497,1.534-2.106C468.56,224.699,468.594,224.269,468.676,224.272z"
									/>
							</g>
							<g>
								<path style="fill:#EB996E;" d="M470.297,228.716c0.128,0.056-0.279,1.231-1.109,2.507c-0.827,1.279-1.734,2.129-1.838,2.035
									c-0.112-0.098,0.598-1.076,1.401-2.319C469.559,229.701,470.163,228.654,470.297,228.716z"/>
							</g>
							<g>
								<path style="fill:#EB996E;" d="M472.473,231.658c0.121,0.079-0.234,0.806-0.792,1.624c-0.558,0.819-1.105,1.415-1.222,1.331
									c-0.117-0.083,0.237-0.811,0.792-1.624C471.806,232.175,472.353,231.579,472.473,231.658z"/>
							</g>
							<g>
								<path style="fill:#EB996E;" d="M472.072,230.489c-0.024,0.063-0.22,0.07-0.479-0.088c-0.254-0.152-0.556-0.497-0.634-0.977
									c-0.075-0.48,0.104-0.902,0.298-1.126c0.197-0.231,0.386-0.285,0.428-0.233c0.095,0.101-0.322,0.607-0.212,1.277
									C471.577,230.012,472.13,230.363,472.072,230.489z"/>
							</g>
							<g>
								<path style="fill:#EB996E;" d="M474.445,233.476c-0.026,0.063-0.188,0.078-0.405-0.044
									c-0.213-0.117-0.465-0.388-0.556-0.769c-0.091-0.367,0-0.786,0.267-0.968c0.259-0.172,0.461-0.052,0.435,0.013
									c-0.06,0.121-0.342,0.277-0.195,0.834C474.103,233.052,474.497,233.346,474.445,233.476z"/>
							</g>
							<g>
								<path style="fill:#EB996E;" d="M470.691,227.307c-0.007,0.065-0.218,0.118-0.521-0.021c-0.293-0.13-0.663-0.495-0.718-1.038
									c-0.046-0.544,0.251-0.971,0.514-1.153c0.272-0.193,0.489-0.179,0.508-0.117c0.057,0.111-0.561,0.512-0.503,1.222
									C470.045,226.908,470.727,227.187,470.691,227.307z"/>
							</g>
						</g>
					</g>
					<g>
						<path style="fill:#E8505B;" d="M537.611,184.343c-3.221-1.402-7.189,0.012-9.519,2.434c-2.33,2.423-3.398,5.632-4.404,8.737
							c-0.97,2.992-3.378,9.066-4.348,12.058l18.293,7.833c1.556-4.226,3.011-8.484,4.362-12.771
							c1.135-3.602,2.193-7.486,0.876-11.066"/>
						<g>
							<path style="fill:#263238;" d="M542.87,191.568c0.014-0.004,0.078,0.146,0.189,0.441c0.11,0.294,0.25,0.741,0.356,1.332
								c0.242,1.178,0.284,2.955-0.13,5.119c-0.397,2.17-1.244,4.69-2.211,7.538c-0.964,2.86-2.04,6.05-3.198,9.486l-0.084,0.249
								l-0.266-0.113c-3.979-1.698-8.332-3.557-12.876-5.496c-1.857-0.796-3.683-1.579-5.422-2.325l-0.217-0.093l0.069-0.205
								c1.475-4.354,3.134-8.352,4.372-12.031c0.605-1.849,1.209-3.605,1.99-5.168c0.774-1.563,1.733-2.924,2.854-3.961
								c2.267-2.093,4.965-2.709,6.704-2.635c0.885,0.03,1.547,0.219,1.981,0.357c0.424,0.168,0.637,0.27,0.63,0.283
								c-0.018,0.066-0.881-0.434-2.612-0.461c-1.689-0.018-4.288,0.634-6.443,2.688c-1.066,1.018-1.984,2.354-2.725,3.894
								c-0.748,1.541-1.329,3.282-1.919,5.134c-1.216,3.71-2.856,7.719-4.312,12.047l-0.148-0.298
								c1.74,0.744,3.567,1.525,5.425,2.32c4.539,1.949,8.887,3.817,12.862,5.524l-0.349,0.135c1.184-3.423,2.284-6.6,3.269-9.449
								c0.999-2.837,1.881-5.341,2.315-7.474c0.452-2.13,0.46-3.872,0.274-5.042C543.072,192.189,542.825,191.579,542.87,191.568z"
								/>
						</g>
					</g>
					<g>
						<path style="fill:#EB996E;" d="M519.433,236.257c-0.066,0.014-0.208-1.043-0.828-2.828c-0.302-0.893-0.783-1.95-1.504-3.065
							c-0.729-1.085-1.753-2.301-3.184-3.051l0.053,0.015c-5.312-0.691-12.242-1.591-19.816-2.576
							c-4.235-0.571-8.267-1.115-11.945-1.611c-1.832-0.254-3.574-0.496-5.21-0.724c-1.622-0.259-3.137-0.5-4.526-0.722
							c-0.69-0.112-1.348-0.218-1.973-0.319c-0.592-0.102-1.148,0.029-1.627,0.293c-0.986,0.477-1.845,0.891-2.57,1.242
							c-0.669,0.314-1.21,0.568-1.634,0.766c-0.376,0.17-0.577,0.251-0.586,0.235c-0.008-0.016,0.178-0.129,0.538-0.329
							c0.412-0.221,0.939-0.504,1.59-0.854c0.714-0.373,1.56-0.814,2.531-1.321c0.484-0.287,1.146-0.468,1.807-0.36
							c0.627,0.089,1.287,0.184,1.978,0.283c1.392,0.202,2.909,0.423,4.533,0.659c1.637,0.212,3.382,0.438,5.216,0.676
							c3.68,0.484,7.713,1.014,11.95,1.57c7.566,1.031,14.49,1.975,19.797,2.699l0.035,0.005l0.019,0.01
							c1.566,0.85,2.551,2.105,3.29,3.242c0.715,1.161,1.173,2.25,1.448,3.166c0.287,0.912,0.447,1.639,0.521,2.137
							C519.419,235.991,519.453,236.253,519.433,236.257z"/>
					</g>
				</g>
			</g>
			<g>
				<path style="fill:#263238;" d="M506.97,226.042c-0.036,0.004-0.132-0.51-0.275-1.439c-0.163-1.021-0.374-2.344-0.628-3.935
					c-0.564-3.411-1.315-7.953-2.146-12.973c-0.833-5.023-1.587-9.566-2.153-12.977c-0.247-1.593-0.453-2.917-0.612-3.94
					c-0.134-0.932-0.192-1.45-0.157-1.456c0.035-0.006,0.161,0.501,0.357,1.423c0.201,1.015,0.462,2.331,0.775,3.913
					c0.628,3.309,1.454,7.887,2.304,12.956c0.848,5.067,1.555,9.665,1.996,13.004c0.225,1.669,0.377,3.024,0.465,3.962
					C506.978,225.518,507.006,226.038,506.97,226.042z"/>
			</g>
		</g>
	</g>
</g>
<g id="Floor">
	<g>
		<path style="fill:#263238;" d="M696.503,444.904c0,0.144-144.741,0.26-323.246,0.26c-178.567,0-323.277-0.117-323.277-0.26
			c0-0.144,144.709-0.26,323.277-0.26C551.763,444.643,696.503,444.76,696.503,444.904z"/>
	</g>
</g>
<g id="Plant">
	<g>
		<g>
			<path style="fill:#E8505B;" d="M69.378,411.559c-1.607,2.168-4.594,1.356-5.952-0.03c-1.358-1.386-1.895-3.357-2.382-5.236
				c-1.111-4.292-2.227-8.794-1.2-13.107c0.307-1.289,0.827-2.57,1.764-3.507c0.937-0.938,2.354-1.472,3.626-1.1
				c1.505,0.441,2.408,1.952,3.051,3.382c1.891,4.206,2.827,8.838,2.719,13.448C70.955,407.563,70.64,409.814,69.378,411.559"/>
		</g>
		<g style="opacity:0.2;">
			<path d="M69.378,411.559c-1.607,2.168-4.594,1.356-5.952-0.03c-1.358-1.386-1.895-3.357-2.382-5.236
				c-1.111-4.292-2.227-8.794-1.2-13.107c0.307-1.289,0.827-2.57,1.764-3.507c0.937-0.938,2.354-1.472,3.626-1.1
				c1.505,0.441,2.408,1.952,3.051,3.382c1.891,4.206,2.827,8.838,2.719,13.448C70.955,407.563,70.64,409.814,69.378,411.559"/>
		</g>
		<g>
			<path style="fill:#E8505B;" d="M63.281,422.594c-2.495-1.373-5.47-1.623-8.292-1.234c-1.516,0.209-3.101,0.618-4.159,1.724
				c-1.057,1.106-1.305,3.096-0.152,4.101c0.686,0.599,1.663,0.713,2.573,0.727c2.2,0.033,4.65-0.288,6.372,1.082
				c0.982,0.782,1.616,2.055,2.804,2.458c1.163,0.395,2.504-0.262,3.154-1.303c0.65-1.042,0.706-2.364,0.448-3.564
				C66.03,426.585,65.795,423.977,63.281,422.594z"/>
		</g>
		<g>
			<path style="fill:#E8505B;" d="M73.542,414.843c-1.626-2.039-1.867-4.955-1.053-7.433c0.814-2.478,2.56-4.557,4.553-6.24
				c2.336-1.973,5.061-3.483,7.972-4.42c1.146-0.369,2.351-0.651,3.545-0.505c1.194,0.146,2.384,0.791,2.914,1.871
				c0.784,1.597-0.059,3.487-0.958,5.022c-1.583,2.706-3.378,5.287-5.365,7.711c-1.598,1.95-3.421,3.868-5.799,4.705
				c-2.379,0.837-4.822,0.665-6.026-1.001"/>
		</g>
		<g>
			<g>
				<path style="fill:#263238;" d="M68.589,444.895c-0.029,0.001-0.066-0.358-0.113-1.008c-0.051-0.733-0.116-1.653-0.193-2.747
					c-0.097-1.157-0.228-2.533-0.509-4.036c-0.279-1.499-0.736-3.128-1.334-4.783c-0.621-1.647-1.392-3.148-2.307-4.357
					c-0.909-1.214-1.979-2.104-2.994-2.628c-1.011-0.534-1.925-0.764-2.558-0.872c-0.639-0.083-0.996-0.143-0.996-0.172
					c0-0.029,0.36-0.023,1.018,0.012c0.651,0.061,1.604,0.252,2.671,0.772c1.071,0.51,2.208,1.415,3.162,2.655
					c0.962,1.235,1.762,2.771,2.394,4.446c0.608,1.685,1.057,3.33,1.321,4.861c0.263,1.528,0.365,2.919,0.425,4.085
					c0.056,1.166,0.063,2.109,0.062,2.761C68.634,444.534,68.617,444.894,68.589,444.895z"/>
			</g>
		</g>
		<g>
			<g>
				<path style="fill:#263238;" d="M68.457,442.782c-0.014-0.001-0.019-0.162-0.014-0.467c0.01-0.35,0.023-0.791,0.039-1.332
					c0.034-1.156,0.079-2.829,0.072-4.897c0.008-4.135-0.194-9.849-0.713-16.138c-0.524-6.291-1.29-11.957-2.018-16.027
					c-0.17-1.02-0.345-1.939-0.511-2.743c-0.157-0.806-0.291-1.501-0.424-2.064c-0.112-0.53-0.204-0.961-0.277-1.303
					c-0.059-0.299-0.083-0.458-0.069-0.462c0.014-0.004,0.065,0.148,0.15,0.441c0.093,0.338,0.209,0.764,0.353,1.287
					c0.157,0.558,0.314,1.25,0.493,2.053c0.188,0.802,0.383,1.719,0.572,2.738c0.804,4.067,1.618,9.742,2.143,16.046
					c0.52,6.302,0.677,12.031,0.593,16.175c-0.031,2.072-0.12,3.748-0.204,4.903c-0.048,0.54-0.086,0.98-0.117,1.329
					C68.494,442.624,68.471,442.783,68.457,442.782z"/>
			</g>
		</g>
		<g>
			<g>
				<path style="fill:#263238;" d="M68.725,431.747c-0.029-0.002-0.011-0.496,0.047-1.392c0.075-0.893,0.233-2.182,0.527-3.759
					c0.309-1.573,0.733-3.439,1.374-5.461c0.612-2.031,1.438-4.219,2.472-6.439c2.027-4.469,4.715-8.096,7.029-10.324
					c0.545-0.593,1.145-1.016,1.627-1.433c0.249-0.199,0.47-0.399,0.693-0.556c0.225-0.146,0.433-0.282,0.627-0.408
					c0.755-0.487,1.177-0.743,1.192-0.719c0.064,0.092-1.69,1.062-3.933,3.323c-2.234,2.256-4.849,5.859-6.859,10.291
					c-1.025,2.201-1.855,4.368-2.483,6.379c-0.657,2.002-1.107,3.849-1.451,5.404c-0.329,1.56-0.53,2.835-0.654,3.719
					C68.826,431.258,68.754,431.748,68.725,431.747z"/>
			</g>
		</g>
	</g>
</g>
</svg>
